<svg xmlns="http://www.w3.org/2000/svg" width="480" height="480">
<path style="fill:#ffd300;vector-effect:non-scaling-stroke" d="M240.3 0a240.3 240.3 0 1 1 0 480.5 240.3 240.3 0 0 1 0-480.5z" transform="rotate(.1) scale(.9959)"/>
<path style="fill:#1f1f1f;stroke:#000;mix-blend-mode:source-over;paint-order:stroke fill markers;fill-opacity:1;stroke-dasharray:none;stroke-dashoffset:0;stroke-linecap:round;stroke-linejoin:miter;stroke-miterlimit:4;stroke-opacity:1;stroke-width:2;vector-effect:non-scaling-stroke" d="M19.4 0a19.4 19.4 0 1 1 0 38.8 19.4 19.4 0 0 1 0-38.8z" transform="rotate(-11.9 805.5 -556.9) scale(1.46454)"/>
<path style="fill:#1f1f1f;stroke:#000;mix-blend-mode:source-over;paint-order:stroke fill markers;fill-opacity:1;stroke-dasharray:none;stroke-dashoffset:0;stroke-linecap:round;stroke-linejoin:miter;stroke-miterlimit:4;stroke-opacity:1;stroke-width:2;vector-effect:non-scaling-stroke" d="M19.4 0a19.4 19.4 0 1 1 0 38.8 19.4 19.4 0 0 1 0-38.8z" transform="rotate(-11.9 874 -1214.8) scale(1.46454)"/>
<path style="fill:#000;stroke:#000;mix-blend-mode:source-over;paint-order:stroke fill markers;fill-opacity:1;stroke-dasharray:none;stroke-dashoffset:0;stroke-linecap:round;stroke-linejoin:miter;stroke-miterlimit:4;stroke-opacity:1;stroke-width:2;vector-effect:non-scaling-stroke" d="M0 0h144v20H0z" transform="matrix(1.34949 0 0 .61332 142 321.7)"/>
</svg>
